<mxfile host="app.diagrams.net" modified="2021-10-08T00:40:37.533Z" agent="5.0 (Windows)" etag="-Mvboc_U0dl8snrI9Yp2" version="15.4.3" type="github">
  <diagram id="0_0tAG-te3PN_c8cfoPu" name="Page-1">
    <mxGraphModel dx="868" dy="478" grid="1" gridSize="10" guides="1" tooltips="1" connect="1" arrows="1" fold="1" page="1" pageScale="1" pageWidth="850" pageHeight="1100" math="0" shadow="0">
      <root>
        <mxCell id="0" />
        <mxCell id="1" parent="0" />
        <mxCell id="zGKaFh12sOiq3w4vf_gh-5" style="edgeStyle=orthogonalEdgeStyle;rounded=0;orthogonalLoop=1;jettySize=auto;html=1;exitX=1;exitY=0;exitDx=0;exitDy=0;entryX=0.5;entryY=0;entryDx=0;entryDy=0;fontSize=20;" edge="1" parent="1" source="wdogyhV1ooz12Hr0zi-Z-1" target="wdogyhV1ooz12Hr0zi-Z-3">
          <mxGeometry relative="1" as="geometry">
            <Array as="points">
              <mxPoint x="412" y="120" />
              <mxPoint x="640" y="120" />
            </Array>
          </mxGeometry>
        </mxCell>
        <mxCell id="zGKaFh12sOiq3w4vf_gh-11" value="state and action" style="edgeLabel;html=1;align=center;verticalAlign=middle;resizable=0;points=[];fontSize=20;" vertex="1" connectable="0" parent="zGKaFh12sOiq3w4vf_gh-5">
          <mxGeometry x="-0.2028" y="1" relative="1" as="geometry">
            <mxPoint x="24" as="offset" />
          </mxGeometry>
        </mxCell>
        <mxCell id="zGKaFh12sOiq3w4vf_gh-10" style="edgeStyle=orthogonalEdgeStyle;rounded=0;orthogonalLoop=1;jettySize=auto;html=1;exitX=0;exitY=1;exitDx=0;exitDy=0;entryX=0.5;entryY=1;entryDx=0;entryDy=0;fontSize=20;" edge="1" parent="1" source="wdogyhV1ooz12Hr0zi-Z-1" target="wdogyhV1ooz12Hr0zi-Z-4">
          <mxGeometry relative="1" as="geometry">
            <Array as="points">
              <mxPoint x="328" y="250" />
              <mxPoint x="120" y="250" />
            </Array>
          </mxGeometry>
        </mxCell>
        <mxCell id="zGKaFh12sOiq3w4vf_gh-13" value="explanation" style="edgeLabel;html=1;align=center;verticalAlign=middle;resizable=0;points=[];fontSize=20;" vertex="1" connectable="0" parent="zGKaFh12sOiq3w4vf_gh-10">
          <mxGeometry x="0.1909" y="2" relative="1" as="geometry">
            <mxPoint x="17" as="offset" />
          </mxGeometry>
        </mxCell>
        <mxCell id="wdogyhV1ooz12Hr0zi-Z-1" value="Agent" style="ellipse;whiteSpace=wrap;html=1;fontSize=20;" parent="1" vertex="1">
          <mxGeometry x="310" y="140" width="120" height="80" as="geometry" />
        </mxCell>
        <mxCell id="zGKaFh12sOiq3w4vf_gh-9" style="edgeStyle=orthogonalEdgeStyle;rounded=0;orthogonalLoop=1;jettySize=auto;html=1;exitX=0.5;exitY=1;exitDx=0;exitDy=0;entryX=1;entryY=1;entryDx=0;entryDy=0;fontSize=20;" edge="1" parent="1" source="wdogyhV1ooz12Hr0zi-Z-3" target="wdogyhV1ooz12Hr0zi-Z-1">
          <mxGeometry relative="1" as="geometry">
            <Array as="points">
              <mxPoint x="640" y="250" />
              <mxPoint x="412" y="250" />
            </Array>
          </mxGeometry>
        </mxCell>
        <mxCell id="zGKaFh12sOiq3w4vf_gh-12" value="explanation" style="edgeLabel;html=1;align=center;verticalAlign=middle;resizable=0;points=[];fontSize=20;" vertex="1" connectable="0" parent="zGKaFh12sOiq3w4vf_gh-9">
          <mxGeometry x="0.0733" relative="1" as="geometry">
            <mxPoint as="offset" />
          </mxGeometry>
        </mxCell>
        <mxCell id="wdogyhV1ooz12Hr0zi-Z-3" value="Explanation model" style="rounded=0;whiteSpace=wrap;html=1;fontSize=20;" parent="1" vertex="1">
          <mxGeometry x="580" y="150" width="120" height="60" as="geometry" />
        </mxCell>
        <mxCell id="zGKaFh12sOiq3w4vf_gh-4" value="query" style="edgeStyle=orthogonalEdgeStyle;rounded=0;orthogonalLoop=1;jettySize=auto;html=1;exitX=0.5;exitY=0;exitDx=0;exitDy=0;entryX=0;entryY=0;entryDx=0;entryDy=0;fontSize=20;" edge="1" parent="1" source="wdogyhV1ooz12Hr0zi-Z-4" target="wdogyhV1ooz12Hr0zi-Z-1">
          <mxGeometry x="-0.0745" relative="1" as="geometry">
            <Array as="points">
              <mxPoint x="120" y="120" />
              <mxPoint x="328" y="120" />
            </Array>
            <mxPoint as="offset" />
          </mxGeometry>
        </mxCell>
        <mxCell id="wdogyhV1ooz12Hr0zi-Z-4" value="Human" style="ellipse;whiteSpace=wrap;html=1;aspect=fixed;fontSize=20;" parent="1" vertex="1">
          <mxGeometry x="80" y="140" width="80" height="80" as="geometry" />
        </mxCell>
      </root>
    </mxGraphModel>
  </diagram>
</mxfile>
